<svg viewBox="0 0 96 25" id="svg5" xmlns="http://www.w3.org/2000/svg" xmlns:svg="http://www.w3.org/2000/svg"><defs id="defs9"/><path d="M5 0H91a5 5 0 015 5v15a5 5 0 01-5 5H5a5 5 0 01-5-5V5a5 5 0 015-5z" style="fill:#000" id="path2"/><g aria-label="FATFS" id="component-text" style="font-weight:900;font-size:25px;font-family:Montserrat;letter-spacing:1.1px;fill:#fffffc"><path d="m11.925 10.95h7.7v4.45h-7.7zm.4 10.05h-5.9V3.5H20.65v4.45h-8.325z" id="path11"/><path d="m21.099987 21 7.65-17.5h5.8l7.65 17.5h-6.1l-5.65-14.7h2.3l-5.65 14.7zm4.55-3.05 1.5-4.25h8.05l1.5 4.25z" id="path13"/><path d="M47.174986 21V8.075h-5.125V3.5h16.15v4.575h-5.125V21z" id="path15"/><path d="m66.324967 10.95h7.7v4.45h-7.7zm.4 10.05h-5.9V3.5h14.225v4.45h-8.325z" id="path17"/><path d="m84.549945 21.4q-2.2.0-4.25-.5t-3.375-1.3l1.9-4.3q1.25.725 2.775 1.175 1.55.425 3 .425.85.0 1.325-.1.5-.125.725-.325.225-.225.225-.525.0-.475-.525-.75t-1.4-.45q-.85-.2-1.875-.4-1.025-.225-2.075-.575-1.025-.35-1.9-.925-.85-.575-1.375-1.5-.525-.95-.525-2.35.0-1.625.9-2.95.925-1.35 2.725-2.15 1.825-.8 4.525-.8 1.775.0 3.5.375t3.1 1.15l-1.775 4.275q-1.3-.65-2.525-.975-1.2-.325-2.35-.325-.85.0-1.35.15t-.725.4q-.2.25-.2.55.0.45.525.725.525.25 1.375.425.875.175 1.9.375 1.05.2 2.075.55 1.025.35 1.875.925.875.575 1.4 1.5t.525 2.3q0 1.6-.925 2.95-.9 1.325-2.7 2.15-1.8.8-4.525.8z" id="path19"/></g></svg>